<mxfile host="app.diagrams.net" modified="2023-06-20T20:17:20.064Z" agent="Mozilla/5.0 (Windows NT 10.0; Win64; x64) AppleWebKit/537.36 (KHTML, like Gecko) Chrome/114.0.0.0 Safari/537.36" etag="n-InwE_z3zOefyx0iss0" version="21.5.0" type="device">
  <diagram name="Page-1" id="4Rj-1Lc_wGj_2iHSTkpQ">
    <mxGraphModel dx="834" dy="1853" grid="1" gridSize="10" guides="1" tooltips="1" connect="1" arrows="1" fold="1" page="1" pageScale="1" pageWidth="850" pageHeight="1100" math="0" shadow="0">
      <root>
        <mxCell id="0" />
        <mxCell id="1" parent="0" />
        <mxCell id="449a1LVatcPoVBru0w-b-43" style="edgeStyle=orthogonalEdgeStyle;rounded=0;orthogonalLoop=1;jettySize=auto;html=1;" edge="1" parent="1" source="449a1LVatcPoVBru0w-b-1" target="449a1LVatcPoVBru0w-b-20">
          <mxGeometry relative="1" as="geometry">
            <mxPoint x="70" y="250" as="sourcePoint" />
            <Array as="points">
              <mxPoint x="70" y="90" />
            </Array>
          </mxGeometry>
        </mxCell>
        <mxCell id="449a1LVatcPoVBru0w-b-1" value="User" style="sketch=0;outlineConnect=0;fontColor=#232F3E;gradientColor=none;strokeColor=#232F3E;fillColor=#ffffff;dashed=0;verticalLabelPosition=bottom;verticalAlign=top;align=center;html=1;fontSize=12;fontStyle=0;aspect=fixed;shape=mxgraph.aws4.resourceIcon;resIcon=mxgraph.aws4.user;" vertex="1" parent="1">
          <mxGeometry x="40" y="260" width="60" height="60" as="geometry" />
        </mxCell>
        <mxCell id="449a1LVatcPoVBru0w-b-3" value="" style="edgeStyle=orthogonalEdgeStyle;html=1;endArrow=block;elbow=vertical;startArrow=none;endFill=1;strokeColor=#545B64;rounded=0;" edge="1" parent="1">
          <mxGeometry width="100" relative="1" as="geometry">
            <mxPoint x="110" y="290" as="sourcePoint" />
            <mxPoint x="230" y="289.5" as="targetPoint" />
          </mxGeometry>
        </mxCell>
        <mxCell id="449a1LVatcPoVBru0w-b-4" value="USER" style="text;strokeColor=none;align=center;fillColor=none;html=1;verticalAlign=middle;whiteSpace=wrap;rounded=0;" vertex="1" parent="1">
          <mxGeometry x="140" y="270" width="40" height="20" as="geometry" />
        </mxCell>
        <mxCell id="449a1LVatcPoVBru0w-b-5" value="anshulgorewar.com" style="text;strokeColor=none;align=center;fillColor=none;html=1;verticalAlign=middle;whiteSpace=wrap;rounded=0;" vertex="1" parent="1">
          <mxGeometry x="140" y="287.75" width="60" height="30" as="geometry" />
        </mxCell>
        <mxCell id="449a1LVatcPoVBru0w-b-11" style="edgeStyle=orthogonalEdgeStyle;rounded=0;orthogonalLoop=1;jettySize=auto;html=1;" edge="1" parent="1" source="449a1LVatcPoVBru0w-b-6">
          <mxGeometry relative="1" as="geometry">
            <mxPoint x="380" y="275" as="targetPoint" />
          </mxGeometry>
        </mxCell>
        <mxCell id="449a1LVatcPoVBru0w-b-6" value="" style="outlineConnect=0;dashed=0;verticalLabelPosition=bottom;verticalAlign=top;align=center;html=1;shape=mxgraph.aws3.route_53;fillColor=#F58536;gradientColor=none;" vertex="1" parent="1">
          <mxGeometry x="220" y="232.25" width="70.5" height="85.5" as="geometry" />
        </mxCell>
        <mxCell id="449a1LVatcPoVBru0w-b-32" style="edgeStyle=orthogonalEdgeStyle;rounded=0;orthogonalLoop=1;jettySize=auto;html=1;" edge="1" parent="1" source="449a1LVatcPoVBru0w-b-7" target="449a1LVatcPoVBru0w-b-33">
          <mxGeometry relative="1" as="geometry">
            <mxPoint x="255.25" y="430" as="targetPoint" />
          </mxGeometry>
        </mxCell>
        <mxCell id="449a1LVatcPoVBru0w-b-7" value="Route 53" style="text;strokeColor=none;align=center;fillColor=none;html=1;verticalAlign=middle;whiteSpace=wrap;rounded=0;" vertex="1" parent="1">
          <mxGeometry x="225.25" y="317.75" width="60" height="30" as="geometry" />
        </mxCell>
        <mxCell id="449a1LVatcPoVBru0w-b-23" style="edgeStyle=orthogonalEdgeStyle;rounded=0;orthogonalLoop=1;jettySize=auto;html=1;" edge="1" parent="1" source="449a1LVatcPoVBru0w-b-8">
          <mxGeometry relative="1" as="geometry">
            <mxPoint x="300" y="81" as="targetPoint" />
          </mxGeometry>
        </mxCell>
        <mxCell id="449a1LVatcPoVBru0w-b-8" value="" style="sketch=0;points=[[0,0,0],[0.25,0,0],[0.5,0,0],[0.75,0,0],[1,0,0],[0,1,0],[0.25,1,0],[0.5,1,0],[0.75,1,0],[1,1,0],[0,0.25,0],[0,0.5,0],[0,0.75,0],[1,0.25,0],[1,0.5,0],[1,0.75,0]];outlineConnect=0;fontColor=#232F3E;gradientColor=#945DF2;gradientDirection=north;fillColor=#5A30B5;strokeColor=#ffffff;dashed=0;verticalLabelPosition=bottom;verticalAlign=top;align=center;html=1;fontSize=12;fontStyle=0;aspect=fixed;shape=mxgraph.aws4.resourceIcon;resIcon=mxgraph.aws4.api_gateway;" vertex="1" parent="1">
          <mxGeometry x="509.5" y="42" width="78" height="78" as="geometry" />
        </mxCell>
        <mxCell id="449a1LVatcPoVBru0w-b-16" style="edgeStyle=orthogonalEdgeStyle;rounded=0;orthogonalLoop=1;jettySize=auto;html=1;" edge="1" parent="1" source="449a1LVatcPoVBru0w-b-9" target="449a1LVatcPoVBru0w-b-17">
          <mxGeometry relative="1" as="geometry">
            <mxPoint x="550" y="275" as="targetPoint" />
          </mxGeometry>
        </mxCell>
        <mxCell id="449a1LVatcPoVBru0w-b-9" value="" style="outlineConnect=0;dashed=0;verticalLabelPosition=bottom;verticalAlign=top;align=center;html=1;shape=mxgraph.aws3.cloudfront;fillColor=#F58536;gradientColor=none;" vertex="1" parent="1">
          <mxGeometry x="387" y="228.5" width="76.5" height="93" as="geometry" />
        </mxCell>
        <mxCell id="449a1LVatcPoVBru0w-b-10" value="Cloudfront" style="text;strokeColor=none;align=center;fillColor=none;html=1;verticalAlign=middle;whiteSpace=wrap;rounded=0;" vertex="1" parent="1">
          <mxGeometry x="400" y="317.75" width="60" height="30" as="geometry" />
        </mxCell>
        <mxCell id="449a1LVatcPoVBru0w-b-13" value="API Gateway" style="text;strokeColor=none;align=center;fillColor=none;html=1;verticalAlign=middle;whiteSpace=wrap;rounded=0;" vertex="1" parent="1">
          <mxGeometry x="520" y="130" width="60" height="30" as="geometry" />
        </mxCell>
        <mxCell id="449a1LVatcPoVBru0w-b-19" style="edgeStyle=orthogonalEdgeStyle;rounded=0;orthogonalLoop=1;jettySize=auto;html=1;" edge="1" parent="1" source="449a1LVatcPoVBru0w-b-17">
          <mxGeometry relative="1" as="geometry">
            <mxPoint x="550" y="180" as="targetPoint" />
          </mxGeometry>
        </mxCell>
        <mxCell id="449a1LVatcPoVBru0w-b-17" value="" style="sketch=0;outlineConnect=0;fontColor=#232F3E;gradientColor=none;fillColor=#3F8624;strokeColor=none;dashed=0;verticalLabelPosition=bottom;verticalAlign=top;align=center;html=1;fontSize=12;fontStyle=0;aspect=fixed;pointerEvents=1;shape=mxgraph.aws4.bucket;" vertex="1" parent="1">
          <mxGeometry x="512.5" y="236" width="75" height="78" as="geometry" />
        </mxCell>
        <mxCell id="449a1LVatcPoVBru0w-b-18" value="S3 Bucket" style="text;strokeColor=none;align=center;fillColor=none;html=1;verticalAlign=middle;whiteSpace=wrap;rounded=0;" vertex="1" parent="1">
          <mxGeometry x="520" y="317.75" width="60" height="30" as="geometry" />
        </mxCell>
        <mxCell id="449a1LVatcPoVBru0w-b-29" style="edgeStyle=orthogonalEdgeStyle;rounded=0;orthogonalLoop=1;jettySize=auto;html=1;exitX=0.355;exitY=-0.028;exitDx=0;exitDy=0;exitPerimeter=0;" edge="1" parent="1" source="449a1LVatcPoVBru0w-b-20">
          <mxGeometry relative="1" as="geometry">
            <mxPoint x="246" y="-50" as="targetPoint" />
            <mxPoint x="246" y="22" as="sourcePoint" />
          </mxGeometry>
        </mxCell>
        <mxCell id="449a1LVatcPoVBru0w-b-36" style="edgeStyle=orthogonalEdgeStyle;rounded=0;orthogonalLoop=1;jettySize=auto;html=1;" edge="1" parent="1">
          <mxGeometry relative="1" as="geometry">
            <mxPoint x="220" y="79" as="sourcePoint" />
            <mxPoint x="51" y="260" as="targetPoint" />
          </mxGeometry>
        </mxCell>
        <mxCell id="449a1LVatcPoVBru0w-b-20" value="" style="outlineConnect=0;dashed=0;verticalLabelPosition=bottom;verticalAlign=top;align=center;html=1;shape=mxgraph.aws3.lambda_function;fillColor=#F58534;gradientColor=none;" vertex="1" parent="1">
          <mxGeometry x="221.5" y="42" width="69" height="72" as="geometry" />
        </mxCell>
        <mxCell id="449a1LVatcPoVBru0w-b-21" value="AWS Lambda" style="text;strokeColor=none;align=center;fillColor=none;html=1;verticalAlign=middle;whiteSpace=wrap;rounded=0;" vertex="1" parent="1">
          <mxGeometry x="226" y="120" width="60" height="30" as="geometry" />
        </mxCell>
        <mxCell id="449a1LVatcPoVBru0w-b-25" value="" style="outlineConnect=0;dashed=0;verticalLabelPosition=bottom;verticalAlign=top;align=center;html=1;shape=mxgraph.aws3.dynamo_db;fillColor=#2E73B8;gradientColor=none;" vertex="1" parent="1">
          <mxGeometry x="218.5" y="-170" width="72" height="81" as="geometry" />
        </mxCell>
        <mxCell id="449a1LVatcPoVBru0w-b-31" style="edgeStyle=orthogonalEdgeStyle;rounded=0;orthogonalLoop=1;jettySize=auto;html=1;" edge="1" parent="1">
          <mxGeometry relative="1" as="geometry">
            <mxPoint x="259.5" y="40" as="targetPoint" />
            <mxPoint x="259.5" y="-50" as="sourcePoint" />
          </mxGeometry>
        </mxCell>
        <mxCell id="449a1LVatcPoVBru0w-b-26" value="Dynamo DB" style="text;strokeColor=none;align=center;fillColor=none;html=1;verticalAlign=middle;whiteSpace=wrap;rounded=0;" vertex="1" parent="1">
          <mxGeometry x="224.5" y="-80" width="60" height="30" as="geometry" />
        </mxCell>
        <mxCell id="449a1LVatcPoVBru0w-b-33" value="" style="sketch=0;points=[[0,0,0],[0.25,0,0],[0.5,0,0],[0.75,0,0],[1,0,0],[0,1,0],[0.25,1,0],[0.5,1,0],[0.75,1,0],[1,1,0],[0,0.25,0],[0,0.5,0],[0,0.75,0],[1,0.25,0],[1,0.5,0],[1,0.75,0]];outlineConnect=0;fontColor=#232F3E;gradientColor=#F54749;gradientDirection=north;fillColor=#C7131F;strokeColor=#ffffff;dashed=0;verticalLabelPosition=bottom;verticalAlign=top;align=center;html=1;fontSize=12;fontStyle=0;aspect=fixed;shape=mxgraph.aws4.resourceIcon;resIcon=mxgraph.aws4.certificate_manager_3;" vertex="1" parent="1">
          <mxGeometry x="217" y="420" width="78" height="78" as="geometry" />
        </mxCell>
        <mxCell id="449a1LVatcPoVBru0w-b-34" value="AWS Certificate Manager" style="text;strokeColor=none;align=center;fillColor=none;html=1;verticalAlign=middle;whiteSpace=wrap;rounded=0;" vertex="1" parent="1">
          <mxGeometry x="226" y="510" width="60" height="30" as="geometry" />
        </mxCell>
      </root>
    </mxGraphModel>
  </diagram>
</mxfile>
